<svg xmlns="http://www.w3.org/2000/svg" viewBox="0 0 1200 820" width="1200" height="820" style="background:#ffffff;font-family:-apple-system,BlinkMacSystemFont,'Segoe UI',Roboto,Helvetica,Arial,sans-serif;">
  <defs>
    <filter id="shadow" x="-5%" y="-5%" width="110%" height="110%">
      <feDropShadow dx="0" dy="1" stdDeviation="3" flood-color="#000" flood-opacity="0.08"/>
    </filter>
    <filter id="cardShadow" x="-5%" y="-5%" width="110%" height="110%">
      <feDropShadow dx="0" dy="2" stdDeviation="4" flood-color="#000" flood-opacity="0.06"/>
    </filter>
  </defs>

  <!-- Google Header & Search Bar -->
  <g transform="translate(40, 24)">
    <!-- Google Logo -->
    <path d="M22.5 10.8c0-.8-.1-1.5-.2-2.2H11.5v4.2h6.2c-.3 1.4-1.1 2.6-2.3 3.4v2.8h3.7c2.2-2 3.4-5 3.4-8.2z" fill="#4285F4"/>
    <path d="M11.5 22c3.1 0 5.7-1 7.6-2.8l-3.7-2.8c-1 1-2.4 1.5-3.9 1.5-3 0-5.5-2-6.4-4.8H1.2v3c1.9 3.8 5.8 6.1 10.3 6.1z" fill="#34A853"/>
    <path d="M5.1 13.1c-.2-.7-.3-1.4-.3-2.1s.1-1.4.3-2.1V5.9H1.2C.4 7.5 0 9.2 0 11s.4 3.5 1.2 5.1l3.9-3z" fill="#FBBC05"/>
    <path d="M11.5 4.4c1.7 0 3.2.6 4.4 1.7l3.3-3.3C17.2 1 14.6 0 11.5 0 7 0 3.1 2.3 1.2 6.1l3.9 3c.9-2.8 3.4-4.7 6.4-4.7z" fill="#EA4335"/>

    <!-- Search Input Box -->
    <rect x="110" y="-10" width="760" height="46" rx="23" fill="#ffffff" stroke="#dfe1e5" stroke-width="1.5" filter="url(#shadow)"/>
    <text x="135" y="19" font-size="15" fill="#202124" font-weight="400">Instalação frigoríficos em Navegantes</text>

    <!-- Right Controls inside search box -->
    <g transform="translate(745, 2)">
      <!-- Close X -->
      <path d="M19 6.41L17.59 5 12 10.59 6.41 5 5 6.41 10.59 12 5 17.59 6.41 19 12 13.41 17.59 19 19 17.59 13.41 12z" fill="#70757a" transform="translate(-35, -3) scale(0.75)"/>
      <line x1="-10" y1="-2" x2="-10" y2="22" stroke="#dadce0" stroke-width="1"/>
      <!-- Keyboard -->
      <rect x="0" y="2" width="17" height="13" rx="2" fill="none" stroke="#70757a" stroke-width="1.2"/>
      <!-- Mic -->
      <path d="M12 14c1.66 0 3-1.34 3-3V5c0-1.66-1.34-3-3-3S9 3.34 9 5v6c0 1.66 1.34 3 3 3z" fill="#4285F4" transform="translate(20, -2) scale(0.75)"/>
      <path d="M17 11c0 2.76-2.24 5-5 5s-5-2.24-5-5H5c0 3.53 2.61 6.43 6 6.92V21h2v-3.08c3.39-.49 6-3.39 6-6.92h-2z" fill="#34A853" transform="translate(20, -2) scale(0.75)"/>
      <!-- Camera Lens -->
      <circle cx="56" cy="10" r="4.5" fill="none" stroke="#FBBC05" stroke-width="1.8"/>
      <!-- Search Glass -->
      <path d="M15.5 14h-.79l-.28-.27C15.41 12.59 16 11.11 16 9.5 16 5.91 13.09 3 9.5 3S3 5.91 3 9.5 5.91 16 9.5 16c1.61 0 3.09-.59 4.23-1.57l.27.28v.79l5 4.99L20.49 19l-4.99-5zm-6 0C7.01 14 5 11.99 5 9.5S7.01 5 9.5 5 14 7.01 14 9.5 11.99 14 9.5 14z" fill="#4285F4" transform="translate(76, -4) scale(0.85)"/>
    </g>
  </g>

  <!-- Search Tabs -->
  <g transform="translate(150, 84)" font-size="13" fill="#5f6368" font-weight="500">
    <text x="0" y="0">Modo IA</text>
    <text x="65" y="0" fill="#1a73e8" font-weight="700">Tudo</text>
    <line x1="65" y1="8" x2="95" y2="8" stroke="#1a73e8" stroke-width="2.5"/>
    <text x="120" y="0">Shopping</text>
    <text x="195" y="0">Imagens</text>
    <text x="265" y="0">Vídeos</text>
    <text x="325" y="0">Vídeos curtos</text>
    <text x="420" y="0">Notícias</text>
    <text x="485" y="0">Mais ▾</text>
    <text x="545" y="0">Ferramentas ▾</text>
  </g>
  <line x1="0" y1="98" x2="1200" y2="98" stroke="#ebebeb" stroke-width="1"/>

  <!-- Filter Pills -->
  <g transform="translate(150, 122)" font-size="12" fill="#3c4043">
    <rect x="0" y="-14" width="130" height="28" rx="14" fill="#ffffff" stroke="#dadce0" stroke-width="1"/>
    <text x="16" y="4">Estimativas on-line</text>

    <rect x="140" y="-14" width="105" height="28" rx="14" fill="#ffffff" stroke="#dadce0" stroke-width="1"/>
    <text x="156" y="4">Abertos agora</text>

    <rect x="255" y="-14" width="105" height="28" rx="14" fill="#ffffff" stroke="#dadce0" stroke-width="1"/>
    <text x="271" y="4">Bem avaliados</text>
  </g>

  <!-- Geolocation indicator -->
  <g transform="translate(150, 160)" font-size="13">
    <path d="M12 2C8.13 2 5 5.13 5 9c0 5.25 7 13 7 13s7-7.75 7-13c0-3.87-3.13-7-7-7zm0 9.5c-1.38 0-2.5-1.12-2.5-2.5s1.12-2.5 2.5-2.5 2.5 1.12 2.5 2.5-1.12 2.5-2.5 2.5z" fill="#5f6368" transform="scale(0.7) translate(-5,-13)"/>
    <text x="18" y="0" font-weight="700" fill="#202124">Navegantes, SC</text>
    <text x="120" y="0" fill="#1a0dab">· Escolher região</text>
  </g>

  <!-- ==================== GOOGLE AI OVERVIEW CONTAINER ==================== -->
  <g transform="translate(150, 185)">
    <!-- AI Header Sparkles -->
    <path d="M8 2l1.8 4.2L14 8l-4.2 1.8L8 14l-1.8-4.2L2 8l4.2-1.8z" fill="#4285F4"/>
    <path d="M14 12l.9 2.1L17 15l-2.1.9L14 18l-.9-2.1L11 15l2.1-.9z" fill="#A142F4"/>
    <text x="24" y="10" font-size="14" font-weight="600" fill="#202124">Visão geral criada por IA</text>
    <!-- Speaker icon -->
    <path d="M3 9v6h4l5 5V4L7 9H3zm13.5 3c0-1.77-1.02-3.29-2.5-4.03v8.05c1.48-.73 2.5-2.25 2.5-4.02z" fill="#5f6368" transform="translate(195, -3) scale(0.75)"/>

    <!-- Left Content Box (AI Text) -->
    <g transform="translate(0, 32)">
      <!-- Main Paragraph -->
      <text x="0" y="16" font-size="14.5" fill="#202124" line-height="1.5">
        <tspan>A </tspan>
        <tspan fill="#1a0dab" font-weight="600" text-decoration="underline">Instalação Frigorífica em Navegantes/SC</tspan>
        <tspan> pode ser contratada diretamente pelo</tspan>
      </text>
      <text x="0" y="38" font-size="14.5" fill="#202124">
        <tspan>telefone </tspan>
        <tspan font-weight="700" fill="#1a0dab">(47) 99169-9068</tspan>
        <tspan>, que atende montagem, vácuo, carga de gás e start-up de</tspan>
      </text>
      <text x="0" y="60" font-size="14.5" fill="#202124">
        <tspan>equipamentos comerciais e industriais. 🔗</tspan>
      </text>

      <!-- Section 1: Serviços Locais -->
      <text x="0" y="100" font-size="15" font-weight="700" fill="#1f1f1f">Serviços Locais de Refrigeração e Câmaras Frias</text>

      <text x="0" y="128" font-size="13.5" fill="#3c4043">
        <tspan font-weight="700" fill="#1f1f1f">• Horácio Refrigeração:</tspan>
        <tspan> Localizada na Av. Conselheiro João Gaya, 774 - Centro.</tspan>
      </text>
      <text x="10" y="148" font-size="13.5" fill="#3c4043">
        <tspan>Telefone: (47) 99103-0195. Oferece peças e serviços de instalação e manutenção</tspan>
      </text>
      <text x="10" y="168" font-size="13.5" fill="#3c4043">
        <tspan>de câmaras frias. 🔗</tspan>
      </text>

      <text x="0" y="198" font-size="13.5" fill="#3c4043">
        <tspan font-weight="700" fill="#1f1f1f">• Santa Catarina Refrigeração:</tspan>
        <tspan> Localizada na Rua Ver. Nereu Liberato Nunes, 191 -</tspan>
      </text>
      <text x="10" y="218" font-size="13.5" fill="#3c4043">
        <tspan>Centro. Telefone: (47) 99224-5172. Atendimento 24 horas para reparos urgentes e</tspan>
      </text>
      <text x="10" y="238" font-size="13.5" fill="#3c4043">
        <tspan>equipamentos comerciais. 🔗</tspan>
      </text>

      <text x="0" y="268" font-size="13.5" fill="#3c4043">
        <tspan font-weight="700" fill="#1f1f1f">• Módulos Frigoríficos - CVM:</tspan>
        <tspan> Localizada na Rua Argentina - Gravatá. Telefone:</tspan>
      </text>
      <text x="10" y="288" font-size="13.5" fill="#3c4043">
        <tspan>(47) 98445-1865. Venda e aluguel de módulos frigoríficos de fácil instalação. 🔗</tspan>
      </text>

      <!-- Section 2: Grandes Investimentos -->
      <text x="0" y="328" font-size="15" font-weight="700" fill="#1f1f1f">Grandes Investimentos na Cidade</text>

      <text x="0" y="356" font-size="13.5" fill="#3c4043">
        <tspan font-weight="700" fill="#1f1f1f">• Centro de Distribuição da Aurora Alimentos:</tspan>
        <tspan> Anunciado em setembro de 2026,</tspan>
      </text>
      <text x="10" y="376" font-size="13.5" fill="#3c4043">
        <tspan>com investimento de </tspan>
        <tspan font-weight="700" fill="#1f1f1f">R$ 600 milhões</tspan>
        <tspan>. A estrutura será construída no bairro </tspan>
        <tspan font-weight="700" fill="#1f1f1f">Escalvados</tspan>
        <tspan>,</tspan>
      </text>
      <text x="10" y="396" font-size="13.5" fill="#3c4043">
        <tspan>às margens da </tspan>
        <tspan font-weight="700" fill="#1f1f1f">SC-414</tspan>
        <tspan>, com previsão de criar </tspan>
        <tspan font-weight="700" fill="#1f1f1f">350 empregos diretos</tspan>
        <tspan> e mais de </tspan>
        <tspan font-weight="700" fill="#1f1f1f">1.000</tspan>
      </text>
      <text x="10" y="416" font-size="13.5" fill="#3c4043">
        <tspan font-weight="700" fill="#1f1f1f">vagas indiretas</tspan>
        <tspan>. [Facebook • DIARINHO]</tspan>
      </text>

      <!-- Ask Follow-up Input Box -->
      <g transform="translate(0, 446)">
        <rect x="0" y="0" width="560" height="42" rx="21" fill="#f8f9fa" stroke="#e0e0e0" stroke-width="1"/>
        <circle cx="21" cy="21" r="12" fill="#e8eaed"/>
        <text x="16" y="25" font-size="16" fill="#3c4043" font-weight="400">+</text>
        <text x="44" y="26" font-size="13" fill="#70757a">Pergunte o que quiser</text>
        <path d="M12 14c1.66 0 3-1.34 3-3V5c0-1.66-1.34-3-3-3S9 3.34 9 5v6c0 1.66 1.34 3 3 3z" fill="#4285F4" transform="translate(525, 12) scale(0.7)"/>
      </g>
    </g>

    <!-- Right Side Citations Box -->
    <g transform="translate(610, 20)">
      <rect x="0" y="0" width="310" height="400" rx="16" fill="#ffffff" stroke="#dadce0" stroke-width="1" filter="url(#cardShadow)"/>

      <!-- Citation 1: Facebook -->
      <g transform="translate(14, 16)">
        <circle cx="10" cy="10" r="10" fill="#1877F2"/>
        <text x="6" y="15" font-size="13" font-weight="bold" fill="#fff">f</text>
        <text x="26" y="10" font-size="11" fill="#202124" font-weight="500">Facebook</text>
        <text x="80" y="10" font-size="11" fill="#70757a">• DIARINHO</text>
        <text x="0" y="32" font-size="12" font-weight="700" fill="#1a0dab">🚛 INVESTIMENTO</text>
        <text x="0" y="48" font-size="12" font-weight="700" fill="#1a0dab">HISTÓRICO A Aurora...</text>
        <text x="0" y="66" font-size="11" fill="#70757a">7 de set. de 2026 — 🚚</text>
        <!-- Thumbnail box -->
        <rect x="180" y="15" width="90" height="55" rx="6" fill="#202124"/>
        <text x="215" y="46" font-size="10" fill="#ffffff">▶ 0:52</text>
      </g>
      <line x1="14" y1="105" x2="296" y2="105" stroke="#f1f3f4" stroke-width="1"/>

      <!-- Citation 2: CLIENTE (DESTAQUE DA VISÃO GERAL) -->
      <g transform="translate(14, 120)">
        <rect x="-6" y="-8" width="292" height="116" rx="10" fill="#e8f0fe" stroke="#1a73e8" stroke-width="1.5"/>
        <circle cx="10" cy="10" r="10" fill="#0b2447"/>
        <text x="5" y="14" font-size="11" fill="#00ffff">❄</text>
        <text x="26" y="14" font-size="11" fill="#5f6368">tecnicoderefrigeracao.servicosno...</text>
        <text x="0" y="38" font-size="12.5" font-weight="700" fill="#1a0dab">Instalação Frigorífica em Navegantes/SC | (47)</text>
        <text x="0" y="54" font-size="12.5" font-weight="700" fill="#1a0dab">99169-9068</text>
        <text x="0" y="74" font-size="11" fill="#4d5156">Instalação de equipamentos frigoríficos em Navegantes e</text>
        <text x="0" y="90" font-size="11" fill="#4d5156">região. Montagem, vácuo, carga de gás e start-up de...</text>
      </g>
      <line x1="14" y1="250" x2="296" y2="250" stroke="#f1f3f4" stroke-width="1"/>

      <!-- Citation 3: Google Horácio -->
      <g transform="translate(14, 265)">
        <circle cx="10" cy="10" r="10" fill="#ea4335"/>
        <text x="6" y="14" font-size="11" font-weight="bold" fill="#fff">G</text>
        <text x="26" y="14" font-size="11" fill="#5f6368">Google</text>
        <text x="0" y="38" font-size="12.5" font-weight="600" fill="#1a0dab">Horácio Refrigeração</text>
        <text x="0" y="56" font-size="11" fill="#4d5156">Comércio especializado em peças para instalação e</text>
        <text x="0" y="72" font-size="11" fill="#4d5156">manutenção de ar-condicionado e linha branca...</text>
      </g>

      <!-- Mostrar tudo button -->
      <g transform="translate(14, 355)">
        <rect x="0" y="0" width="282" height="32" rx="16" fill="#f1f3f4"/>
        <text x="105" y="20" font-size="12" font-weight="500" fill="#1f1f1f">Mostrar tudo</text>
      </g>
    </g>
  </g>
</svg>